<?xml version="1.0" encoding="utf-8"?>
<!-- Generator: Adobe Illustrator 16.0.0, SVG Export Plug-In . SVG Version: 6.00 Build 0)  -->
<!DOCTYPE svg PUBLIC "-//W3C//DTD SVG 1.1//EN" "http://www.w3.org/Graphics/SVG/1.1/DTD/svg11.dtd">
<svg version="1.1" id="Layer_1" xmlns:sketch="http://www.bohemiancoding.com/sketch/ns"
	 xmlns="http://www.w3.org/2000/svg" xmlns:xlink="http://www.w3.org/1999/xlink" x="0px" y="0px" width="227px" height="315px"
	 viewBox="0 0 227 315" enable-background="new 0 0 227 315" xml:space="preserve">
<title>Trim</title>
<desc>Created with Sketch.</desc>
<g id="Page-1" sketch:type="MSPage">
	<g id="Spades" transform="translate(10.000000, 26.000000)" sketch:type="MSLayerGroup">
		<g id="_x31_0" transform="translate(1.000000, 9.000000)" sketch:type="MSShapeGroup">
			<path id="path7293-3-2" d="M52.133,0.18C42.948,13.295,33.12,20.842,32.957,31.074c-0.055,3.313,1.734,8.945,7.338,10.023
				c3.635,0.696,8.641-2.25,8.746-8.236c-0.016-1.191,1.26-1.161,1.249,0.472c-0.171,4.722-1.664,10.219-4.173,14.694h12.032
				c-2.509-4.475-4.001-9.972-4.173-14.694c-0.012-1.633,1.264-1.664,1.249-0.472c0.104,5.986,5.11,8.932,8.746,8.236
				c5.604-1.078,7.393-6.709,7.338-10.023C71.145,20.842,61.317,13.295,52.133,0.18L52.133,0.18z"/>
			<path id="path7295-4-8" d="M9.692,17.403c-4.292,5.465-8.883,8.609-8.959,12.873c-0.026,1.38,0.81,3.727,3.428,4.176
				c1.699,0.29,4.038-0.938,4.086-3.432c-0.01-0.497,0.589-0.484,0.583,0.196c-0.08,1.968-0.777,4.258-1.949,6.123h5.622
				c-1.172-1.864-1.87-4.155-1.95-6.123c-0.01-0.68,0.591-0.693,0.583-0.196c0.049,2.494,2.388,3.722,4.086,3.432
				c2.618-0.449,3.454-2.796,3.429-4.176C18.575,26.013,13.984,22.868,9.692,17.403L9.692,17.403z"/>
			<path id="path7297-5-1" d="M52.133,179.885c-9.185-13.115-19.013-20.662-19.176-30.895c-0.055-3.313,1.734-8.945,7.338-10.022
				c3.635-0.696,8.641,2.25,8.746,8.235c-0.016,1.192,1.26,1.161,1.249-0.472c-0.171-4.722-1.664-10.219-4.173-14.693h12.032
				c-2.509,4.475-4.001,9.972-4.173,14.693c-0.012,1.633,1.264,1.664,1.249,0.472c0.104-5.985,5.11-8.932,8.746-8.235
				c5.604,1.077,7.393,6.709,7.338,10.022C71.145,159.223,61.317,166.77,52.133,179.885L52.133,179.885z"/>
			<path id="path7299-3-5" d="M197.645,228.59c-4.291-5.464-8.883-8.609-8.959-12.872c-0.026-1.38,0.811-3.728,3.428-4.177
				c1.699-0.289,4.038,0.938,4.087,3.433c-0.011,0.496,0.589,0.483,0.583-0.197c-0.08-1.968-0.777-4.258-1.949-6.122h5.621
				c-1.172,1.864-1.869,4.154-1.949,6.122c-0.01,0.681,0.59,0.693,0.583,0.197c0.049-2.494,2.388-3.722,4.087-3.433
				c2.617,0.449,3.453,2.797,3.428,4.177C206.527,219.98,201.936,223.126,197.645,228.59L197.645,228.59z"/>
			<path id="path7301-4-0" d="M155.203,0.18c-9.185,13.115-19.012,20.662-19.176,30.894c-0.055,3.313,1.734,8.945,7.339,10.023
				c3.636,0.696,8.642-2.25,8.745-8.236c-0.016-1.191,1.261-1.161,1.249,0.472c-0.171,4.722-1.664,10.219-4.173,14.694h12.032
				c-2.509-4.475-4.001-9.972-4.173-14.694c-0.012-1.633,1.264-1.664,1.248-0.472c0.105,5.986,5.11,8.932,8.746,8.236
				c5.604-1.078,7.393-6.709,7.338-10.023C174.216,20.842,164.389,13.295,155.203,0.18L155.203,0.18z"/>
			<path id="path7303-7-8" d="M52.133,66.109C42.948,79.224,33.12,86.771,32.957,97.003c-0.055,3.313,1.734,8.945,7.338,10.022
				c3.635,0.696,8.641-2.25,8.746-8.236c-0.016-1.192,1.26-1.161,1.249,0.472c-0.171,4.721-1.664,10.219-4.173,14.693h12.032
				c-2.509-4.475-4.001-9.972-4.173-14.693c-0.012-1.633,1.264-1.664,1.249-0.472c0.104,5.985,5.11,8.932,8.746,8.236
				c5.604-1.078,7.393-6.709,7.338-10.022C71.145,86.771,61.317,79.224,52.133,66.109L52.133,66.109z"/>
			<path id="path7309-8-5" d="M155.203,66.109c-9.185,13.115-19.012,20.663-19.176,30.895c-0.055,3.313,1.734,8.945,7.339,10.022
				c3.636,0.696,8.642-2.25,8.745-8.236c-0.016-1.192,1.261-1.161,1.249,0.472c-0.171,4.721-1.664,10.219-4.173,14.693h12.032
				c-2.509-4.475-4.001-9.972-4.173-14.693c-0.012-1.633,1.264-1.664,1.248-0.472c0.105,5.985,5.11,8.932,8.746,8.236
				c5.604-1.078,7.393-6.709,7.338-10.022C174.216,86.771,164.389,79.224,155.203,66.109L155.203,66.109z"/>
			<path id="path7313-6-8" d="M52.133,245.813c-9.185-13.115-19.013-20.663-19.176-30.895c-0.055-3.313,1.734-8.944,7.338-10.022
				c3.635-0.696,8.641,2.25,8.746,8.236c-0.016,1.191,1.26,1.16,1.249-0.473c-0.171-4.721-1.664-10.219-4.173-14.693h12.032
				c-2.509,4.475-4.001,9.973-4.173,14.693c-0.012,1.633,1.264,1.664,1.249,0.473c0.104-5.986,5.11-8.933,8.746-8.236
				c5.604,1.078,7.393,6.709,7.338,10.022C71.145,225.15,61.317,232.698,52.133,245.813L52.133,245.813z"/>
			<path id="path7315-7-3" d="M155.203,245.813c-9.185-13.115-19.012-20.663-19.176-30.895c-0.055-3.313,1.734-8.944,7.339-10.022
				c3.636-0.696,8.642,2.25,8.745,8.236c-0.016,1.191,1.261,1.16,1.249-0.473c-0.171-4.721-1.664-10.219-4.173-14.693h12.032
				c-2.509,4.475-4.001,9.973-4.173,14.693c-0.012,1.633,1.264,1.664,1.248,0.473c0.105-5.986,5.11-8.933,8.746-8.236
				c5.604,1.078,7.393,6.709,7.338,10.022C174.216,225.15,164.389,232.698,155.203,245.813L155.203,245.813z"/>
			<path id="path7319-5-6" d="M155.203,179.885c-9.185-13.115-19.012-20.662-19.176-30.895c-0.055-3.313,1.734-8.945,7.339-10.022
				c3.636-0.696,8.642,2.25,8.745,8.235c-0.016,1.192,1.261,1.161,1.249-0.472c-0.171-4.722-1.664-10.219-4.173-14.693h12.032
				c-2.509,4.475-4.001,9.972-4.173,14.693c-0.012,1.633,1.264,1.664,1.248,0.472c0.105-5.985,5.11-8.932,8.746-8.235
				c5.604,1.077,7.393,6.709,7.338,10.022C174.216,159.223,164.389,166.77,155.203,179.885L155.203,179.885z"/>
		</g>
	</g>
</g>
<path id="path7301-4-0_1_" d="M114.668,35.18c-9.185,13.115-19.012,20.662-19.176,30.894c-0.055,3.313,1.734,8.945,7.339,10.023
	c3.636,0.696,8.642-2.25,8.745-8.236c-0.016-1.191,1.261-1.161,1.249,0.472c-0.171,4.722-1.664,10.219-4.173,14.694h12.032
	c-2.509-4.475-4.001-9.972-4.173-14.694c-0.012-1.633,1.264-1.664,1.248-0.472c0.105,5.986,5.11,8.932,8.746,8.236
	c5.604-1.078,7.393-6.709,7.338-10.023C133.681,55.842,123.854,48.295,114.668,35.18L114.668,35.18z"/>
<path id="path7309-8-5_1_" d="M114.668,101.109c-9.185,13.115-19.012,20.663-19.176,30.895c-0.055,3.313,1.734,8.945,7.339,10.022
	c3.636,0.696,8.642-2.25,8.745-8.236c-0.016-1.192,1.261-1.161,1.249,0.472c-0.171,4.721-1.664,10.219-4.173,14.693h12.032
	c-2.509-4.475-4.001-9.972-4.173-14.693c-0.012-1.633,1.264-1.664,1.248-0.472c0.105,5.985,5.11,8.932,8.746,8.236
	c5.604-1.078,7.393-6.709,7.338-10.022C133.681,121.771,123.854,114.224,114.668,101.109L114.668,101.109z"/>
<path id="path7315-7-3_1_" d="M114.668,280.813c-9.185-13.115-19.012-20.663-19.176-30.895c-0.055-3.313,1.734-8.944,7.339-10.022
	c3.636-0.696,8.642,2.25,8.745,8.236c-0.016,1.191,1.261,1.16,1.249-0.473c-0.171-4.721-1.664-10.219-4.173-14.693h12.032
	c-2.509,4.475-4.001,9.973-4.173,14.693c-0.012,1.633,1.264,1.664,1.248,0.473c0.105-5.986,5.11-8.933,8.746-8.236
	c5.604,1.078,7.393,6.709,7.338,10.022C133.681,260.15,123.854,267.698,114.668,280.813L114.668,280.813z"/>
<path id="path7319-5-6_1_" d="M114.668,214.885c-9.185-13.115-19.012-20.662-19.176-30.895c-0.055-3.313,1.734-8.945,7.339-10.022
	c3.636-0.696,8.642,2.25,8.745,8.235c-0.016,1.192,1.261,1.161,1.249-0.472c-0.171-4.722-1.664-10.219-4.173-14.693h12.032
	c-2.509,4.475-4.001,9.972-4.173,14.693c-0.012,1.633,1.264,1.664,1.248,0.472c0.105-5.985,5.11-8.932,8.746-8.235
	c5.604,1.077,7.393,6.709,7.338,10.022C133.681,194.223,123.854,201.77,114.668,214.885L114.668,214.885z"/>
</svg>
