<?xml version="1.0" encoding="utf-8"?>
<!-- Generator: Adobe Illustrator 16.0.0, SVG Export Plug-In . SVG Version: 6.00 Build 0)  -->
<!DOCTYPE svg PUBLIC "-//W3C//DTD SVG 1.1//EN" "http://www.w3.org/Graphics/SVG/1.1/DTD/svg11.dtd">
<svg version="1.1" id="Layer_1" xmlns:sketch="http://www.bohemiancoding.com/sketch/ns"
	 xmlns="http://www.w3.org/2000/svg" xmlns:xlink="http://www.w3.org/1999/xlink" x="0px" y="0px" width="227px" height="315px"
	 viewBox="0 0 227 315" enable-background="new 0 0 227 315" xml:space="preserve">
<title>Trim</title>
<desc>Created with Sketch.</desc>
<g id="Page-1" sketch:type="MSPage">
	<g id="Hearts" transform="translate(9.000000, 25.000000)" sketch:type="MSLayerGroup">
		<g id="_x31_0" transform="translate(1.000000, 10.000000)" sketch:type="MSShapeGroup">
			<path id="path10308-5-1" fill="#D40000" d="M51.578,114.302c0,0-4.646-7.631-10.912-16.603
				c-4.192-6.004-7.544-12.505-7.855-18.105c-0.357-6.397,3.026-12.814,9.15-13.125c6.121-0.311,8.606,4.932,9.617,9.255
				c1.011-4.323,3.496-9.565,9.617-9.255c6.125,0.311,9.508,6.729,9.15,13.125c-0.312,5.6-3.664,12.101-7.855,18.105
				C56.223,106.671,51.578,114.302,51.578,114.302L51.578,114.302z"/>
			<path id="path10310-7-8" fill="#D40000" d="M9.137,37.686c0,0-2.215-3.18-5.202-6.918c-1.999-2.501-3.597-5.21-3.745-7.544
				c-0.17-2.665,1.442-5.339,4.362-5.469c2.918-0.129,4.103,2.055,4.585,3.856c0.482-1.801,1.667-3.986,4.585-3.856
				c2.92,0.13,4.533,2.804,4.363,5.469c-0.148,2.333-1.747,5.042-3.745,7.544C11.352,34.506,9.137,37.686,9.137,37.686L9.137,37.686
				z"/>
			<path id="path10312-3-5" fill="#D40000" d="M197.09,209c0,0-2.215,3.18-5.203,6.918c-1.998,2.502-3.596,5.211-3.745,7.544
				c-0.171,2.665,1.442,5.339,4.362,5.469c2.919,0.13,4.104-2.055,4.586-3.856c0.482,1.802,1.666,3.986,4.584,3.856
				c2.92-0.13,4.533-2.804,4.363-5.469c-0.148-2.333-1.746-5.042-3.745-7.544C199.305,212.18,197.09,209,197.09,209L197.09,209z"/>
			<path id="path10314-8-8" fill="#D40000" d="M103.113,90.877c0,0-4.646-7.631-10.912-16.603
				c-4.192-6.004-7.544-12.505-7.855-18.105c-0.357-6.397,3.025-12.814,9.15-13.125c6.121-0.311,8.605,4.932,9.617,9.255
				c1.012-4.323,3.497-9.566,9.618-9.255c6.125,0.311,9.508,6.729,9.15,13.125c-0.312,5.6-3.664,12.101-7.855,18.105
				C107.758,83.246,103.113,90.877,103.113,90.877L103.113,90.877z"/>
			<path id="path10318-3-7" fill="#D40000" d="M51.578,48.373c0,0-4.646-7.631-10.912-16.604
				c-4.192-6.004-7.544-12.505-7.855-18.104C32.453,7.268,35.836,0.851,41.96,0.54c6.121-0.311,8.606,4.932,9.617,9.255
				c1.011-4.323,3.496-9.566,9.617-9.255c6.125,0.311,9.508,6.729,9.15,13.125c-0.312,5.6-3.664,12.101-7.855,18.104
				C56.223,40.742,51.578,48.373,51.578,48.373L51.578,48.373z"/>
			<path id="path10322-4-6" fill="#D40000" d="M154.648,114.302c0,0-4.646-7.631-10.912-16.603
				c-4.192-6.004-7.544-12.505-7.855-18.105c-0.357-6.397,3.025-12.814,9.15-13.125c6.121-0.311,8.605,4.932,9.617,9.255
				c1.012-4.323,3.496-9.565,9.617-9.255c6.125,0.311,9.508,6.729,9.15,13.125c-0.312,5.6-3.664,12.101-7.855,18.105
				C159.294,106.671,154.648,114.302,154.648,114.302L154.648,114.302z"/>
			<path id="path10324-9-8" fill="#D40000" d="M154.648,48.373c0,0-4.646-7.631-10.912-16.604
				c-4.192-6.004-7.544-12.505-7.855-18.104c-0.357-6.397,3.025-12.814,9.15-13.125c6.121-0.311,8.605,4.932,9.617,9.255
				c1.012-4.323,3.496-9.566,9.617-9.255c6.125,0.311,9.508,6.729,9.15,13.125c-0.312,5.6-3.664,12.101-7.855,18.104
				C159.294,40.742,154.648,48.373,154.648,48.373L154.648,48.373z"/>
			<path id="path10332-8-6" fill="#D40000" d="M103.113,155.809c0,0-4.646,7.631-10.912,16.604
				c-4.192,6.004-7.544,12.505-7.855,18.104c-0.357,6.397,3.025,12.814,9.15,13.126c6.121,0.311,8.605-4.933,9.617-9.256
				c1.012,4.323,3.497,9.566,9.618,9.256c6.125-0.312,9.508-6.729,9.15-13.126c-0.312-5.6-3.664-12.101-7.855-18.104
				C107.758,163.439,103.113,155.809,103.113,155.809L103.113,155.809z"/>
			<path id="path10334-5-0" fill="#D40000" d="M154.648,132.384c0,0-4.646,7.632-10.912,16.604
				c-4.192,6.004-7.544,12.505-7.855,18.104c-0.357,6.396,3.025,12.814,9.15,13.125c6.121,0.312,8.605-4.932,9.617-9.254
				c1.012,4.322,3.496,9.565,9.617,9.254c6.125-0.311,9.508-6.729,9.15-13.125c-0.312-5.6-3.664-12.101-7.855-18.104
				C159.294,140.016,154.648,132.384,154.648,132.384L154.648,132.384z"/>
			<path id="path10336-3-5" fill="#D40000" d="M51.578,132.384c0,0-4.646,7.632-10.912,16.604
				c-4.192,6.004-7.544,12.505-7.855,18.104c-0.357,6.396,3.026,12.814,9.15,13.125c6.121,0.312,8.606-4.932,9.617-9.254
				c1.011,4.322,3.496,9.565,9.617,9.254c6.125-0.311,9.508-6.729,9.15-13.125c-0.312-5.6-3.664-12.101-7.855-18.104
				C56.223,140.016,51.578,132.384,51.578,132.384L51.578,132.384z"/>
			<path id="path10338-2-9" fill="#D40000" d="M154.648,198.312c0,0-4.646,7.631-10.912,16.604
				c-4.192,6.004-7.544,12.505-7.855,18.105c-0.357,6.396,3.025,12.813,9.15,13.125c6.121,0.311,8.605-4.933,9.617-9.256
				c1.012,4.323,3.496,9.566,9.617,9.256c6.125-0.312,9.508-6.729,9.15-13.125c-0.312-5.601-3.664-12.102-7.855-18.105
				C159.294,205.943,154.648,198.312,154.648,198.312L154.648,198.312z"/>
			<path id="path10340-9-7" fill="#D40000" d="M51.578,198.312c0,0-4.646,7.631-10.912,16.604
				c-4.192,6.004-7.544,12.505-7.855,18.105c-0.357,6.396,3.026,12.813,9.15,13.125c6.121,0.311,8.606-4.933,9.617-9.256
				c1.011,4.323,3.496,9.566,9.617,9.256c6.125-0.312,9.508-6.729,9.15-13.125c-0.312-5.601-3.664-12.102-7.855-18.105
				C56.223,205.943,51.578,198.312,51.578,198.312L51.578,198.312z"/>
		</g>
	</g>
</g>
<g>
	<title>Trim</title>
	<desc>Created with Sketch.</desc>
	<g id="Page-1_1_" sketch:type="MSPage">
		<g id="Hearts_1_" transform="translate(9.000000, 25.000000)" sketch:type="MSLayerGroup">
			<g id="_x39_" transform="translate(1.000000, 10.000000)" sketch:type="MSShapeGroup">
				<path id="path10258-5-9" fill="#D40000" d="M103.112,147.268c0,0-4.646-7.631-10.912-16.604
					c-4.192-6.004-7.544-12.506-7.855-18.106c-0.357-6.397,3.026-12.814,9.15-13.125c6.122-0.311,8.606,4.933,9.617,9.255
					c1.012-4.322,3.496-9.565,9.617-9.255c6.125,0.311,9.508,6.729,9.15,13.125c-0.312,5.6-3.663,12.102-7.855,18.106
					C107.758,139.637,103.112,147.268,103.112,147.268L103.112,147.268z"/>
			</g>
		</g>
	</g>
</g>
<path id="path10314-8-8_1_" fill="#D40000" d="M113.113,69.486c0,0-4.646-7.631-10.912-16.603
	c-4.192-6.004-7.544-12.505-7.855-18.105c-0.357-6.397,3.025-12.814,9.15-13.125c6.121-0.311,8.605,4.932,9.617,9.255
	c1.012-4.323,3.496-9.566,9.617-9.255c6.125,0.311,9.508,6.729,9.15,13.125c-0.312,5.6-3.664,12.101-7.855,18.105
	C117.758,61.855,113.113,69.486,113.113,69.486L113.113,69.486z"/>
<path id="path10314-8-8_2_" fill="#D40000" d="M113.112,247.148c0,0,4.646,7.631,10.912,16.604
	c4.192,6.004,7.544,12.505,7.856,18.104c0.357,6.397-3.025,12.814-9.151,13.126c-6.121,0.311-8.605-4.933-9.617-9.256
	c-1.012,4.323-3.496,9.566-9.617,9.256c-6.125-0.312-9.507-6.729-9.15-13.126c0.312-5.6,3.664-12.101,7.855-18.104
	C108.467,254.779,113.112,247.148,113.112,247.148L113.112,247.148z"/>
</svg>
