<?xml version="1.0" encoding="utf-8"?>
<!-- Generator: Adobe Illustrator 16.0.0, SVG Export Plug-In . SVG Version: 6.00 Build 0)  -->
<!DOCTYPE svg PUBLIC "-//W3C//DTD SVG 1.1//EN" "http://www.w3.org/Graphics/SVG/1.1/DTD/svg11.dtd">
<svg version="1.1" id="Layer_1" xmlns:sketch="http://www.bohemiancoding.com/sketch/ns"
	 xmlns="http://www.w3.org/2000/svg" xmlns:xlink="http://www.w3.org/1999/xlink" x="0px" y="0px" width="227px" height="315px"
	 viewBox="0 0 227 315" enable-background="new 0 0 227 315" xml:space="preserve">
<title>Trim</title>
<desc>Created with Sketch.</desc>
<g id="Page-1" sketch:type="MSPage">
	<g id="Clubs" transform="translate(10.000000, 23.000000)" sketch:type="MSLayerGroup">
		<g id="_x31_0" transform="translate(0.000000, 11.000000)" sketch:type="MSShapeGroup">
			<path id="path147-0-8-1-6-13-2-22-1-5" d="M155.206,0.635c-9.774,0.212-14.157,11.217-6.919,19.763
				c1.051,1.247,1.158,1.962-0.764,0.765c-4.874-3.259-14.219-1.117-14.698,8.847c-0.591,12.277,16.563,15.814,19.784,2.76
				c0.17-1.377,1.289-1.346,1.02,0.609c-0.294,5.306-1.951,10.266-4.229,15.103h11.619c-2.277-4.836-3.934-9.796-4.229-15.103
				c-0.27-1.955,0.85-1.987,1.02-0.609c3.221,13.055,20.375,9.518,19.784-2.76c-0.479-9.964-9.823-12.106-14.698-8.847
				c-1.922,1.197-1.814,0.482-0.764-0.765c7.238-8.546,2.855-19.551-6.918-19.763c0,0,0,0-0.011,0H155.206z"/>
			<path id="path147-0-8-1-6-75-2-83-21-1-8" d="M52.136,0.635c-9.774,0.212-14.158,11.217-6.918,19.763
				c1.05,1.247,1.158,1.962-0.765,0.765c-4.874-3.259-14.219-1.117-14.698,8.847c-0.591,12.277,16.563,15.814,19.784,2.76
				c0.17-1.377,1.29-1.346,1.02,0.609c-0.293,5.306-1.951,10.266-4.229,15.103h11.62c-2.278-4.836-3.935-9.796-4.229-15.103
				c-0.27-1.955,0.849-1.987,1.02-0.609c3.221,13.055,20.375,9.518,19.784-2.76c-0.479-9.964-9.824-12.106-14.698-8.847
				c-1.922,1.197-1.814,0.482-0.764-0.765c7.239-8.546,2.856-19.551-6.918-19.763c0,0,0,0-0.01,0H52.136z"/>
			<path id="path147-0-8-1-6-7-5-5-7-3-5-5" d="M155.206,246.27c-9.774-0.213-14.157-11.218-6.919-19.764
				c1.051-1.247,1.158-1.963-0.764-0.765c-4.874,3.259-14.219,1.116-14.698-8.848c-0.591-12.276,16.563-15.813,19.784-2.76
				c0.17,1.378,1.289,1.347,1.02-0.608c-0.294-5.307-1.951-10.267-4.229-15.104h11.619c-2.277,4.837-3.934,9.797-4.229,15.104
				c-0.27,1.955,0.85,1.986,1.02,0.608c3.221-13.054,20.375-9.517,19.784,2.76c-0.479,9.964-9.823,12.106-14.698,8.848
				c-1.922-1.198-1.814-0.482-0.764,0.765c7.238,8.546,2.855,19.551-6.918,19.764c0,0,0-0.001-0.011,0H155.206z"/>
			<path id="path147-0-8-1-6-75-6-1-2-7-9-3" d="M52.136,246.27c-9.774-0.213-14.158-11.218-6.918-19.764
				c1.05-1.247,1.158-1.963-0.765-0.765c-4.874,3.259-14.219,1.116-14.698-8.848c-0.591-12.276,16.563-15.813,19.784-2.76
				c0.17,1.378,1.29,1.347,1.02-0.608c-0.293-5.307-1.951-10.267-4.229-15.104h11.62c-2.278,4.837-3.935,9.797-4.229,15.104
				c-0.27,1.955,0.849,1.986,1.02,0.608c3.221-13.054,20.375-9.517,19.784,2.76c-0.479,9.964-9.824,12.106-14.698,8.848
				c-1.922-1.198-1.814-0.482-0.764,0.765c7.239,8.546,2.856,19.551-6.918,19.764c0,0,0-0.001-0.01,0H52.136z"/>
			<path id="path147-0-8-1-6-2-00-7-1-1-4" d="M103.671,33.6c-9.774,0.212-14.157,11.217-6.918,19.763
				c1.05,1.247,1.158,1.962-0.765,0.765c-4.874-3.259-14.219-1.117-14.698,8.847c-0.591,12.277,16.563,15.814,19.784,2.76
				c0.17-1.377,1.29-1.346,1.02,0.609c-0.293,5.306-1.951,10.266-4.229,15.103h11.62c-2.277-4.836-3.935-9.796-4.229-15.103
				c-0.27-1.956,0.85-1.987,1.02-0.609c3.221,13.055,20.375,9.517,19.784-2.76c-0.479-9.964-9.824-12.106-14.698-8.847
				c-1.922,1.197-1.814,0.482-0.764-0.765c7.238-8.546,2.855-19.551-6.919-19.763c0,0,0,0-0.01,0H103.671z"/>
			<path id="path147-0-8-1-6-2-0-8-6-8-1-8" d="M103.671,213.305c-9.774-0.213-14.157-11.218-6.918-19.764
				c1.05-1.246,1.158-1.962-0.765-0.765c-4.874,3.259-14.219,1.116-14.698-8.847c-0.591-12.277,16.563-15.814,19.784-2.76
				c0.17,1.377,1.29,1.346,1.02-0.609c-0.293-5.307-1.951-10.266-4.229-15.103h11.62c-2.277,4.837-3.935,9.796-4.229,15.103
				c-0.27,1.955,0.85,1.986,1.02,0.609c3.221-13.055,20.375-9.518,19.784,2.76c-0.479,9.963-9.824,12.105-14.698,8.847
				c-1.922-1.197-1.814-0.481-0.764,0.765c7.238,8.546,2.855,19.551-6.919,19.764c0,0,0,0-0.01,0H103.671z"/>
			<path id="path147-6-9-8-7-0-5-6-83-3-7" d="M197.652,228.631c3.91-0.088,5.663-4.674,2.768-8.234
				c-0.42-0.52-0.463-0.817,0.306-0.318c1.95,1.357,5.688,0.465,5.88-3.687c0.236-5.115-6.626-6.589-7.914-1.149
				c-0.068,0.574-0.516,0.561-0.408-0.254c0.118-2.211,0.781-4.277,1.691-6.293h-4.647c0.911,2.016,1.574,4.082,1.691,6.293
				c0.108,0.814-0.34,0.828-0.407,0.254c-1.289-5.439-8.15-3.966-7.914,1.149c0.191,4.151,3.93,5.044,5.879,3.687
				c0.77-0.499,0.727-0.201,0.307,0.318c-2.896,3.561-1.143,8.146,2.767,8.234c0.001,0,0,0,0,0H197.652z"/>
			<path id="path147-0-8-1-6-75-2-9-77-44-0-7" d="M52.136,66.564c-9.774,0.212-14.157,11.217-6.918,19.763
				c1.05,1.247,1.158,1.962-0.765,0.765c-4.874-3.259-14.219-1.117-14.698,8.847c-0.591,12.277,16.563,15.814,19.784,2.76
				c0.17-1.377,1.29-1.346,1.02,0.609c-0.293,5.307-1.951,10.266-4.229,15.103h11.62c-2.278-4.837-3.935-9.796-4.229-15.103
				c-0.27-1.955,0.849-1.986,1.02-0.609c3.221,13.055,20.375,9.517,19.784-2.76c-0.479-9.964-9.824-12.106-14.698-8.847
				c-1.922,1.197-1.814,0.482-0.764-0.765c7.239-8.546,2.856-19.551-6.918-19.763c0,0,0,0-0.01,0H52.136z"/>
			<path id="path147-0-8-1-6-75-2-8-0-3-9-3" d="M52.136,180.34c-9.774-0.213-14.158-11.217-6.918-19.764
				c1.05-1.246,1.158-1.961-0.765-0.764c-4.874,3.259-14.219,1.116-14.698-8.848c-0.591-12.277,16.563-15.814,19.784-2.76
				c0.17,1.377,1.29,1.346,1.02-0.609c-0.293-5.307-1.951-10.266-4.229-15.103h11.62c-2.278,4.837-3.935,9.796-4.229,15.103
				c-0.27,1.955,0.849,1.986,1.02,0.609c3.221-13.055,20.375-9.518,19.784,2.76c-0.479,9.964-9.824,12.106-14.698,8.848
				c-1.922-1.197-1.814-0.482-0.764,0.764c7.239,8.547,2.856,19.551-6.918,19.764c0,0,0,0-0.01,0H52.136z"/>
			<path id="path147-0-8-1-6-75-2-9-7-1-9-7-9" d="M155.206,66.564c-9.774,0.212-14.157,11.217-6.919,19.763
				c1.051,1.247,1.158,1.962-0.764,0.765c-4.874-3.259-14.219-1.117-14.698,8.847c-0.591,12.277,16.563,15.814,19.784,2.76
				c0.17-1.377,1.289-1.346,1.02,0.609c-0.294,5.307-1.951,10.266-4.229,15.103h11.619c-2.277-4.837-3.934-9.796-4.229-15.103
				c-0.27-1.955,0.85-1.986,1.02-0.609c3.221,13.055,20.375,9.517,19.784-2.76c-0.479-9.964-9.823-12.106-14.698-8.847
				c-1.922,1.197-1.814,0.482-0.764-0.765c7.238-8.546,2.855-19.551-6.918-19.763c0,0,0,0-0.011,0H155.206z"/>
			<path id="path147-0-8-1-6-75-2-8-5-1-52-2-8" d="M155.206,180.34c-9.774-0.213-14.157-11.217-6.919-19.764
				c1.051-1.246,1.158-1.961-0.764-0.764c-4.874,3.259-14.219,1.116-14.698-8.848c-0.591-12.277,16.563-15.814,19.784-2.76
				c0.17,1.377,1.289,1.346,1.02-0.609c-0.294-5.307-1.951-10.266-4.229-15.103h11.619c-2.277,4.837-3.934,9.796-4.229,15.103
				c-0.27,1.955,0.85,1.986,1.02,0.609c3.221-13.055,20.375-9.518,19.784,2.76c-0.479,9.964-9.823,12.106-14.698,8.848
				c-1.922-1.197-1.814-0.482-0.764,0.764c7.238,8.547,2.855,19.551-6.918,19.764c0,0,0,0-0.011,0H155.206z"/>
			<path id="path147-6-9-8-7-4-5-62-52-8-0" d="M9.698,17.444c-3.91,0.088-5.663,4.674-2.768,8.235
				c0.42,0.52,0.463,0.817-0.306,0.318c-1.95-1.358-5.688-0.465-5.879,3.687c-0.237,5.115,6.625,6.589,7.913,1.15
				c0.068-0.574,0.516-0.561,0.408,0.254c-0.117,2.211-0.78,4.277-1.691,6.292h4.648c-0.911-2.015-1.574-4.082-1.691-6.292
				c-0.108-0.815,0.34-0.828,0.408-0.254c1.289,5.439,8.15,3.965,7.914-1.15c-0.191-4.151-3.93-5.044-5.879-3.687
				c-0.769,0.499-0.726,0.201-0.306-0.318c2.896-3.561,1.143-8.146-2.767-8.235c-0.001,0,0,0,0,0H9.698z"/>
		</g>
	</g>
</g>
<path id="path147-0-8-1-6-75-2-9-7-1-9-7-9_1_" d="M113.671,133.529c-9.774,0.212-14.157,11.217-6.919,19.764
	c1.051,1.246,1.158,1.961-0.764,0.764c-4.874-3.259-14.219-1.117-14.698,8.847c-0.591,12.277,16.563,15.814,19.784,2.76
	c0.17-1.377,1.289-1.346,1.02,0.609c-0.294,5.307-1.951,10.266-4.229,15.102h11.619c-2.277-4.836-3.934-9.795-4.229-15.102
	c-0.27-1.955,0.85-1.986,1.02-0.609c3.221,13.055,20.375,9.518,19.784-2.76c-0.479-9.964-9.823-12.106-14.698-8.847
	c-1.922,1.197-1.814,0.482-0.764-0.764c7.238-8.547,2.855-19.552-6.918-19.764c0,0,0,0-0.011,0H113.671z"/>
</svg>
