<?xml version="1.0" encoding="utf-8"?>
<!-- Generator: Adobe Illustrator 16.0.0, SVG Export Plug-In . SVG Version: 6.00 Build 0)  -->
<!DOCTYPE svg PUBLIC "-//W3C//DTD SVG 1.1//EN" "http://www.w3.org/Graphics/SVG/1.1/DTD/svg11.dtd">
<svg version="1.1" id="Layer_1" xmlns:sketch="http://www.bohemiancoding.com/sketch/ns"
	 xmlns="http://www.w3.org/2000/svg" xmlns:xlink="http://www.w3.org/1999/xlink" x="0px" y="0px" width="227px" height="315px"
	 viewBox="0 0 227 315" enable-background="new 0 0 227 315" xml:space="preserve">
<title>Trim</title>
<desc>Created with Sketch.</desc>
<g id="Page-1" sketch:type="MSPage">
	<g id="Diamonds" transform="translate(11.000000, 25.000000)" sketch:type="MSLayerGroup">
		<g id="_x31_0" transform="translate(1.000000, 9.000000)" sketch:type="MSShapeGroup">
			<path id="path7062-5" fill="#D40000" d="M8.197,37.303c-2.151-3.557-4.415-7.015-7.243-9.968
				c2.828-2.953,5.091-6.411,7.243-9.968c2.151,3.558,4.415,7.015,7.243,9.968C12.611,30.288,10.348,33.746,8.197,37.303
				L8.197,37.303z"/>
			<path id="path7064-0" fill="#D40000" d="M153.707,47.99c-5.162-8.537-10.594-16.835-17.383-23.923
				c6.789-7.088,12.221-15.386,17.383-23.923c5.164,8.538,10.596,16.835,17.383,23.923C164.303,31.155,158.871,39.453,153.707,47.99
				L153.707,47.99z"/>
			<path id="path7066-9" fill="#D40000" d="M196.148,228.555c-2.151-3.558-4.414-7.016-7.243-9.969
				c2.829-2.953,5.092-6.41,7.243-9.968c2.151,3.558,4.414,7.015,7.242,9.968C200.562,221.539,198.3,224.997,196.148,228.555
				L196.148,228.555z"/>
			<path id="path7068-2" fill="#D40000" d="M50.637,47.99c-5.163-8.537-10.595-16.835-17.383-23.923
				c6.788-7.088,12.22-15.386,17.383-23.923C55.8,8.681,61.232,16.979,68.02,24.067C61.232,31.155,55.8,39.453,50.637,47.99
				L50.637,47.99z"/>
			<path id="path7070-0" fill="#D40000" d="M153.707,113.926c-5.162-8.538-10.594-16.835-17.383-23.923
				c6.789-7.088,12.221-15.386,17.383-23.923c5.164,8.538,10.596,16.835,17.383,23.923
				C164.303,97.091,158.871,105.389,153.707,113.926L153.707,113.926z"/>
			<path id="path7072-0" fill="#D40000" d="M50.637,113.926c-5.163-8.538-10.595-16.835-17.383-23.923
				c6.788-7.088,12.22-15.386,17.383-23.923C55.8,74.617,61.232,82.915,68.02,90.003C61.232,97.091,55.8,105.389,50.637,113.926
				L50.637,113.926z"/>
			<path id="path7074-4" fill="#D40000" d="M102.172,80.955c-5.163-8.537-10.595-16.835-17.383-23.923
				c6.788-7.088,12.22-15.386,17.383-23.923c5.164,8.537,10.596,16.835,17.383,23.923C112.768,64.12,107.336,72.417,102.172,80.955
				L102.172,80.955z"/>
			<path id="path7084-9" fill="#D40000" d="M50.637,245.782c-5.163-8.537-10.595-16.835-17.383-23.923
				c6.788-7.088,12.22-15.387,17.383-23.924c5.163,8.537,10.595,16.836,17.383,23.924C61.232,228.947,55.8,237.245,50.637,245.782
				L50.637,245.782z"/>
			<path id="path7086-7" fill="#D40000" d="M153.707,245.789c-5.162-8.537-10.594-16.835-17.383-23.923
				c6.789-7.089,12.221-15.386,17.383-23.923c5.164,8.537,10.596,16.834,17.383,23.923
				C164.303,228.954,158.871,237.252,153.707,245.789L153.707,245.789z"/>
			<path id="path7088-6" fill="#D40000" d="M153.707,179.847c-5.162-8.537-10.594-16.835-17.383-23.923
				c6.789-7.088,12.221-15.386,17.383-23.924c5.164,8.538,10.596,16.836,17.383,23.924
				C164.303,163.012,158.871,171.31,153.707,179.847L153.707,179.847z"/>
			<path id="path7090-8" fill="#D40000" d="M50.637,179.814c-5.163-8.537-10.595-16.835-17.383-23.923
				c6.788-7.088,12.22-15.386,17.383-23.923c5.163,8.537,10.595,16.835,17.383,23.923C61.232,162.979,55.8,171.277,50.637,179.814
				L50.637,179.814z"/>
			<path id="path7092-79" fill="#D40000" d="M102.172,212.812c-5.163-8.537-10.595-16.835-17.383-23.923
				c6.788-7.089,12.22-15.386,17.383-23.923c5.164,8.537,10.596,16.834,17.383,23.923
				C112.768,195.978,107.336,204.275,102.172,212.812L102.172,212.812z"/>
		</g>
	</g>
</g>
<path id="path7092-79_1_" fill="#D40000" d="M114.172,180.812c-5.163-8.537-10.595-16.835-17.383-23.923
	c6.788-7.089,12.22-15.386,17.383-23.923c5.164,8.537,10.596,16.834,17.383,23.923C124.768,163.978,119.336,172.275,114.172,180.812
	L114.172,180.812z"/>
</svg>
